<?xml version="1.0" standalone="no"?>
<!DOCTYPE svg PUBLIC "-//W3C//DTD SVG 20010904//EN"
 "http://www.w3.org/TR/2001/REC-SVG-20010904/DTD/svg10.dtd">
<svg version="1.0" xmlns="http://www.w3.org/2000/svg"
 width="482.000000pt" height="120.000000pt" viewBox="0 0 482.000000 120.000000"
 preserveAspectRatio="xMidYMid meet">
<metadata>
Created by potrace 1.15, written by Peter Selinger 2001-2017
</metadata>
<g transform="translate(0.000000,120.000000) scale(0.100000,-0.100000)"
fill="#000000" stroke="none">
<path d="M1190 1142 c-36 -9 -85 -29 -110 -44 -63 -36 -144 -120 -193 -199
l-41 -67 -160 -5 c-104 -3 -182 -11 -221 -22 -145 -40 -281 -142 -330 -247
-32 -67 -34 -172 -6 -233 24 -52 84 -109 143 -135 59 -26 182 -29 246 -6 109
39 168 102 324 342 l113 174 79 0 c89 0 86 8 42 -95 -52 -123 -24 -177 100
-190 92 -10 193 0 224 23 14 11 26 31 28 46 6 46 -12 56 -99 56 -44 0 -79 4
-79 8 0 5 13 40 28 78 l29 69 71 7 c102 10 131 34 122 98 -3 23 -20 30 -73 30
-57 0 -58 -8 14 146 78 167 70 184 -84 183 -62 0 -128 -7 -167 -17z m35 -222
l-45 -90 -66 0 -65 0 30 43 c53 76 130 135 179 137 7 0 -6 -36 -33 -90z m-499
-258 c-193 -306 -226 -342 -311 -342 -135 0 -167 149 -57 263 77 79 173 115
310 116 l82 1 -24 -38z"/>
<path d="M3782 1137 c-17 -18 -259 -518 -293 -605 -8 -21 -10 -22 -25 -8 -10
11 -34 16 -70 16 -30 0 -54 4 -54 9 0 6 23 56 50 112 28 56 50 110 50 119 0
44 -91 68 -135 36 -15 -11 -22 -11 -44 0 -41 22 -153 18 -206 -7 -52 -24 -120
-95 -142 -147 -22 -50 -21 -143 1 -177 41 -62 159 -91 246 -61 40 14 49 14 92
-1 66 -21 171 -10 203 21 l22 22 20 -22 c40 -45 244 -44 290 2 50 50 20 94
-63 94 -49 0 -55 2 -50 18 4 10 60 133 126 273 66 139 120 264 120 276 0 34
-27 53 -74 53 -31 0 -48 -6 -64 -23z m-563 -431 c9 -11 5 -28 -21 -80 -26 -54
-38 -68 -63 -75 -92 -24 -111 66 -29 139 38 33 93 41 113 16z"/>
<path d="M4122 1137 c-31 -33 -302 -616 -302 -649 0 -43 30 -65 99 -73 92 -11
179 2 208 31 50 50 20 94 -63 94 -49 0 -55 2 -50 18 4 10 60 133 126 273 66
139 120 264 120 276 0 34 -27 53 -74 53 -31 0 -48 -6 -64 -23z"/>
<path d="M2734 966 c-11 -8 -33 -42 -48 -75 -27 -61 -27 -61 -69 -61 -57 0
-87 -22 -87 -64 0 -35 13 -46 51 -46 10 0 19 -2 19 -4 0 -2 -20 -47 -45 -100
-50 -108 -55 -146 -24 -175 42 -39 233 -39 284 1 31 24 34 72 6 88 -11 5 -45
10 -75 10 l-55 0 40 83 39 82 61 11 c69 13 92 30 92 69 0 33 -17 45 -61 45
-30 0 -32 2 -21 21 43 80 26 129 -44 129 -23 0 -52 -6 -63 -14z"/>
<path d="M2242 883 c-33 -29 -122 -191 -122 -222 0 -34 19 -52 57 -53 44 -1
72 11 87 40 l14 26 16 -32 c20 -38 20 -66 2 -81 -8 -7 -56 -15 -106 -18 -105
-7 -140 -25 -140 -73 0 -48 20 -55 159 -54 107 0 132 3 166 21 119 62 132 153
38 277 -46 62 -53 77 -53 116 0 26 -5 51 -12 58 -18 18 -83 15 -106 -5z"/>
<path d="M1654 812 c-28 -31 -334 -693 -334 -723 0 -36 18 -49 68 -49 62 0 82
26 177 233 78 170 80 174 101 160 35 -22 193 -19 241 5 107 55 162 208 115
315 -28 63 -64 80 -151 73 -85 -7 -86 -7 -147 0 -43 5 -55 3 -70 -14z m224
-134 c3 -39 -16 -86 -49 -119 -24 -24 -85 -25 -110 -3 -17 16 -17 19 8 68 39
79 60 97 108 94 38 -3 40 -5 43 -40z"/>
</g>
</svg>
