<?xml version="1.0" standalone="no"?>
<!DOCTYPE svg PUBLIC "-//W3C//DTD SVG 20010904//EN"
 "http://www.w3.org/TR/2001/REC-SVG-20010904/DTD/svg10.dtd">
<svg version="1.0" xmlns="http://www.w3.org/2000/svg"
 width="1080.000000pt" height="1080.000000pt" viewBox="0 0 1080.000000 1080.000000"
 preserveAspectRatio="xMidYMid meet">
<metadata>
Created by potrace 1.15, written by Peter Selinger 2001-2017
</metadata>
<g transform="translate(0.000000,1080.000000) scale(0.100000,-0.100000)"
fill="#000000" stroke="none">
<path d="M5115 8349 c-357 -41 -641 -116 -938 -247 -99 -43 -329 -163 -357
-186 -8 -7 -40 -27 -70 -46 -30 -18 -98 -64 -150 -103 -439 -326 -774 -756
-973 -1252 -40 -99 -61 -160 -111 -321 -78 -254 -125 -739 -96 -994 5 -47 12
-110 15 -140 41 -423 218 -896 487 -1297 29 -43 57 -83 63 -90 5 -6 44 -55 85
-107 79 -101 333 -356 439 -441 34 -27 97 -74 139 -103 42 -29 84 -58 92 -65
8 -7 53 -35 100 -62 47 -28 98 -58 115 -68 27 -15 149 -75 230 -112 17 -8 55
-23 85 -35 30 -11 64 -25 75 -30 57 -25 215 -73 385 -116 126 -31 379 -69 530
-79 156 -11 248 -33 193 -48 -10 -3 -1 -5 20 -6 25 -1 37 -6 37 -15 0 -9 15
-17 40 -21 22 -4 40 -10 40 -13 0 -11 52 -32 77 -32 12 0 34 -11 48 -26 14
-14 29 -23 34 -19 5 3 12 1 16 -5 3 -5 1 -10 -4 -10 -6 0 -11 -4 -11 -9 0 -10
48 -17 168 -27 53 -5 72 -10 72 -21 0 -8 4 -12 9 -9 5 3 44 8 86 11 92 7 152
18 251 48 27 8 51 15 54 15 35 3 105 26 167 53 24 11 46 19 50 19 40 0 354
161 513 262 213 137 361 258 568 464 105 106 192 197 192 203 0 5 16 29 36 53
100 118 262 367 338 518 26 52 52 102 57 110 19 32 106 248 124 308 10 34 22
62 27 62 4 0 8 15 8 34 0 19 4 37 8 40 5 3 14 38 21 78 7 40 17 87 21 103 31
106 43 173 51 279 5 67 12 151 15 188 7 71 -11 158 -32 158 -16 0 -38 56 -30
75 3 9 -1 29 -9 45 -8 16 -15 37 -15 47 0 10 -12 29 -26 43 -15 13 -21 26 -15
28 16 5 13 49 -4 56 -11 4 -13 14 -8 38 6 30 5 32 -10 20 -14 -12 -17 -10 -23
13 -4 16 -2 30 4 34 11 6 -3 46 -39 113 -5 10 -9 30 -9 44 0 23 -2 25 -15 14
-20 -17 -24 -12 -27 33 -1 20 -5 37 -10 37 -7 0 -15 32 -23 90 -9 69 -19 115
-51 230 -43 154 -76 254 -86 258 -5 2 -8 10 -8 19 0 43 -131 326 -221 476 -56
93 -164 255 -178 267 -3 3 -17 21 -30 40 -68 97 -310 351 -431 451 -451 374
-925 581 -1520 664 -137 19 -540 28 -655 14z m-2491 -2119 c-72 -248 -104
-522 -99 -840 7 -470 88 -826 284 -1244 27 -59 51 -110 52 -114 3 -14 19 -54
30 -74 6 -11 7 -18 1 -14 -5 3 -15 20 -23 38 -7 18 -15 35 -19 38 -13 12 -60
91 -60 101 0 6 -9 28 -19 48 -11 20 -37 74 -59 121 -67 147 -63 138 -56 113 3
-13 1 -23 -5 -23 -5 0 -13 10 -16 23 -4 12 -13 36 -20 52 -34 77 -93 298 -119
450 -52 295 -56 669 -11 845 12 45 14 48 10 15 -9 -75 13 -2 25 84 13 95 71
333 100 411 11 30 20 57 20 59 0 2 2 2 4 0 3 -2 -7 -42 -20 -89z m2701 -724
c33 -14 34 -17 23 -41 -8 -18 -17 -24 -27 -19 -59 24 -72 26 -87 13 -20 -16
-8 -27 58 -53 38 -15 55 -28 62 -47 28 -80 -54 -131 -155 -98 -52 18 -61 27
-47 53 6 11 12 22 13 24 2 2 14 -3 27 -11 32 -20 70 -28 87 -18 22 14 5 38
-36 51 -67 22 -83 36 -83 79 0 71 79 103 165 67z m-1420 -27 c-7 -29 -5 -30
22 -27 22 2 29 9 31 31 3 21 9 27 27 27 22 0 24 -3 19 -30 -6 -27 -4 -30 20
-30 38 0 37 -37 -1 -42 -22 -2 -29 -9 -31 -30 -3 -24 0 -28 22 -28 28 0 29 -1
20 -24 -3 -9 -17 -16 -30 -16 -20 0 -24 -5 -24 -30 0 -26 -4 -30 -26 -30 -23
0 -26 3 -22 30 4 27 2 30 -24 30 -24 0 -28 -4 -28 -30 0 -26 -4 -30 -26 -30
-23 0 -25 3 -19 30 6 27 4 30 -19 30 -38 0 -36 37 2 42 21 2 28 9 30 31 3 23
0 27 -22 27 -19 0 -26 5 -26 20 0 16 7 20 30 20 27 0 30 3 30 30 0 26 4 30 26
30 23 0 25 -3 19 -31z m560 -90 c28 -67 52 -125 53 -130 2 -5 -12 -9 -32 -9
-30 0 -37 4 -42 25 -6 23 -11 25 -65 25 -54 0 -60 -2 -69 -25 -7 -19 -17 -25
-40 -25 -16 0 -30 3 -30 7 0 4 23 63 52 130 l52 123 36 0 35 0 50 -121z m434
106 c33 -17 41 -33 41 -83 -1 -61 -38 -92 -109 -92 -40 0 -41 -1 -41 -35 0
-32 -2 -35 -30 -35 l-30 0 0 130 0 130 70 0 c43 0 82 -6 99 -15z m881 -10 c0
-22 -4 -25 -40 -25 l-40 0 0 -105 0 -105 -35 0 -35 0 0 105 0 105 -40 0 c-36
0 -40 3 -40 25 l0 25 115 0 115 0 0 -25z m408 -98 c29 -68 52 -126 52 -130 0
-4 -15 -7 -34 -7 -28 0 -35 4 -40 25 -6 23 -11 25 -66 25 -55 0 -60 -2 -66
-25 -5 -21 -12 -25 -40 -25 -19 0 -34 2 -34 4 0 5 98 235 106 247 3 5 20 9 38
9 32 0 33 -1 84 -123z m322 23 l0 -99 58 -3 c54 -3 57 -4 60 -30 l3 -28 -90 0
-91 0 0 130 0 130 30 0 30 0 0 -100z m390 0 l0 -100 55 0 c54 0 55 0 55 -30
l0 -30 -85 0 -85 0 0 130 0 130 30 0 30 0 0 -100z"/>
</g>
</svg>
